<svg width="26" height="24" viewBox="0 0 26 24" fill="none" xmlns="http://www.w3.org/2000/svg">
<path fill-rule="evenodd" clip-rule="evenodd" d="M15.5001 3.5C15.5001 4.52516 14.8831 5.4062 14.0001 5.79198V7H16.2414H16.2414H16.2415C17.0464 6.99999 17.7108 6.99998 18.252 7.0442C18.814 7.09012 19.3308 7.18868 19.8161 7.43598C20.5687 7.81947 21.1807 8.43139 21.5641 9.18404C21.8114 9.66938 21.91 10.1861 21.9559 10.7482C22.0001 11.2894 22.0001 11.9537 22.0001 12.7587V17.2413C22.0001 18.0463 22.0001 18.7106 21.9559 19.2518C21.91 19.8139 21.8114 20.3306 21.5641 20.816C21.1807 21.5686 20.5687 22.1805 19.8161 22.564C19.3308 22.8113 18.814 22.9099 18.252 22.9558C17.7108 23 17.0464 23 16.2415 23H16.2415H16.2414H16.2414H16.2414H9.75885H9.75883H9.7588H9.75878H9.75876C8.95382 23 8.28948 23 7.7483 22.9558C7.1862 22.9099 6.6695 22.8113 6.18416 22.564C5.43151 22.1805 4.81959 21.5686 4.4361 20.816C4.18881 20.3306 4.09024 19.8139 4.04432 19.2518C4.0001 18.7106 4.00011 18.0463 4.00012 17.2414V17.2413V17.2413V12.7587V12.7587V12.7587C4.00011 11.9537 4.0001 11.2894 4.04432 10.7482C4.09024 10.1861 4.18881 9.66938 4.4361 9.18404C4.81959 8.43139 5.43151 7.81947 6.18416 7.43598C6.6695 7.18868 7.1862 7.09012 7.7483 7.0442C8.28948 6.99998 8.95382 6.99999 9.75877 7H9.75881H9.75883H12.0001V5.79198C11.1172 5.4062 10.5001 4.52516 10.5001 3.5C10.5001 2.11929 11.6194 1 13.0001 1C14.3808 1 15.5001 2.11929 15.5001 3.5ZM24.0001 11.85C24.6352 11.85 25.1501 12.3648 25.1501 13V16C25.1501 16.6351 24.6352 17.15 24.0001 17.15C23.365 17.15 22.8501 16.6351 22.8501 16V13C22.8501 12.3648 23.365 11.85 24.0001 11.85ZM3.1501 13C3.1501 12.3648 2.63523 11.85 2.0001 11.85C1.36497 11.85 0.850098 12.3648 0.850098 13V16C0.850098 16.6351 1.36497 17.15 2.0001 17.15C2.63523 17.15 3.1501 16.6351 3.1501 16L3.1501 13ZM16.0001 17C17.1047 17 18.0001 16.1046 18.0001 15C18.0001 13.8954 17.1047 13 16.0001 13C14.8956 13 14.0001 13.8954 14.0001 15C14.0001 16.1046 14.8956 17 16.0001 17ZM8.29302 12.2929C8.68354 11.9024 9.31671 11.9024 9.70723 12.2929L11.7072 14.2929C12.0978 14.6834 12.0978 15.3166 11.7072 15.7071L9.70723 17.7071C9.31671 18.0976 8.68354 18.0976 8.29302 17.7071C7.90249 17.3166 7.90249 16.6834 8.29302 16.2929L9.58591 15L8.29302 13.7071C7.90249 13.3166 7.90249 12.6834 8.29302 12.2929Z" fill="currentColor"/>
</svg>
