<svg width="24" height="24" viewBox="0 0 24 24" fill="none" xmlns="http://www.w3.org/2000/svg">
<path fill-rule="evenodd" clip-rule="evenodd" d="M15.0888 2.00003H8.21119H8.21118H8.21116C7.35155 2.00002 6.65067 2.00002 6.08146 2.03722C5.49611 2.07548 4.9621 2.15687 4.45633 2.36304C3.66766 2.68452 2.9783 3.21671 2.52745 3.92457C2.22087 4.40593 2.10253 4.91802 2.04938 5.43836C1.99994 5.92248 1.99997 6.5081 2 7.17606V7.17612V7.17619L2.00001 7.23003L2 16.1239V16.1239V16.124C1.99997 16.792 1.99994 17.3776 2.04938 17.8617C2.10253 18.382 2.22087 18.8941 2.52745 19.3755C2.9783 20.0834 3.66766 20.6155 4.45633 20.937C4.9621 21.1432 5.49611 21.2246 6.08146 21.2628C6.65065 21.3 7.3515 21.3 8.21108 21.3H8.21117H15.0888H15.0889C15.9485 21.3 16.6494 21.3 17.2186 21.2628C17.8039 21.2246 18.3379 21.1432 18.8437 20.937C19.6324 20.6155 20.3217 20.0834 20.7726 19.3755C21.0791 18.8941 21.1975 18.382 21.2506 17.8617C21.3001 17.3776 21.3 16.7919 21.3 16.124V16.1239V16.1239V16.1239V7.17618V7.17615V7.17613V7.1761C21.3 6.50813 21.3001 5.92249 21.2506 5.43836C21.1975 4.91802 21.0791 4.40593 20.7726 3.92457C20.3217 3.21671 19.6324 2.68452 18.8437 2.36304C18.3379 2.15687 17.8039 2.07548 17.2186 2.03722C16.6493 2.00002 15.9485 2.00002 15.0889 2.00003H15.0888H15.0888ZM6.15 12.1501C6.15 11.5978 6.59771 11.1501 7.15 11.1501H15.15C15.7023 11.1501 16.15 11.5978 16.15 12.1501C16.15 12.7023 15.7023 13.1501 15.15 13.1501H7.15C6.59771 13.1501 6.15 12.7023 6.15 12.1501ZM6.15 16.1501C6.15 15.5978 6.59771 15.1501 7.15 15.1501H13.15C13.7023 15.1501 14.15 15.5978 14.15 16.1501C14.15 16.7023 13.7023 17.1501 13.15 17.1501H7.15C6.59771 17.1501 6.15 16.7023 6.15 16.1501ZM7.15 6.55008C6.59771 6.55008 6.15 6.99779 6.15 7.55008C6.15 8.10236 6.59771 8.55008 7.15 8.55008H8.15C8.70228 8.55008 9.15 8.10236 9.15 7.55008C9.15 6.99779 8.70228 6.55008 8.15 6.55008H7.15ZM11.4 6.55008C10.8477 6.55008 10.4 6.99779 10.4 7.55008C10.4 8.10236 10.8477 8.55008 11.4 8.55008H12.15C12.7023 8.55008 13.15 8.10236 13.15 7.55008C13.15 6.99779 12.7023 6.55008 12.15 6.55008H11.4ZM15.9 6.55008C15.3477 6.55008 14.9 6.99779 14.9 7.55008C14.9 8.10236 15.3477 8.55008 15.9 8.55008H16.65C17.2023 8.55008 17.65 8.10236 17.65 7.55008C17.65 6.99779 17.2023 6.55008 16.65 6.55008H15.9Z" fill="currentColor"/>
</svg>
