<svg width="24" height="24" viewBox="0 0 24 24" fill="none" xmlns="http://www.w3.org/2000/svg">
<path fill-rule="evenodd" clip-rule="evenodd" d="M12.0001 4C12.4305 4 12.8126 4.27543 12.9487 4.68377L14.9137 10.5786C15.2265 11.5169 16.3458 11.901 17.1688 11.3523L20.4454 9.16795C20.8065 8.9272 21.2817 8.94688 21.6217 9.21666C21.9616 9.48645 22.0888 9.94474 21.9364 10.3511L19.0369 18.0831C18.8106 18.6865 18.1889 19.0453 17.5533 18.9393C13.8765 18.3265 10.1236 18.3265 6.44679 18.9393C5.81117 19.0453 5.18949 18.6865 4.96323 18.0831L2.06373 10.3511C1.91134 9.94474 2.03848 9.48645 2.37846 9.21666C2.71844 8.94688 3.19364 8.9272 3.55476 9.16795L6.83136 11.3523C7.6543 11.901 8.77366 11.5169 9.08643 10.5786L11.0514 4.68377C11.1875 4.27543 11.5696 4 12.0001 4Z" fill="currentColor"/>
</svg>
