<svg width="24" height="24" viewBox="0 0 24 24" fill="none" xmlns="http://www.w3.org/2000/svg">
<path fill-rule="evenodd" clip-rule="evenodd" d="M9.50004 2C6.46248 2 4.00004 4.46243 4.00004 7.5C4.00004 10.5376 6.46248 13 9.50004 13C12.5376 13 15 10.5376 15 7.5C15 4.46243 12.5376 2 9.50004 2ZM16.4451 2.57225C15.9505 2.32646 15.3503 2.52815 15.1045 3.02273C14.8587 3.51731 15.0604 4.11749 15.555 4.36327C16.7099 4.9372 17.5 6.12724 17.5 7.5C17.5 8.87276 16.7099 10.0628 15.555 10.6367C15.0604 10.8825 14.8587 11.4827 15.1045 11.9773C15.3503 12.4719 15.9505 12.6735 16.4451 12.4278C18.2536 11.529 19.5 9.66096 19.5 7.5C19.5 5.33904 18.2536 3.47103 16.4451 2.57225ZM18.4123 15.8553C17.9091 15.6276 17.3167 15.851 17.089 16.3541C16.8613 16.8573 17.0846 17.4498 17.5878 17.6775C18.9328 18.2861 20.171 19.2907 21.2137 20.6178C21.5549 21.0521 22.1836 21.1275 22.6179 20.7863C23.0521 20.4451 23.1276 19.8165 22.7864 19.3822C21.5741 17.8393 20.0902 16.6146 18.4123 15.8553ZM1.21372 19.3822C0.872508 19.8165 0.947955 20.4451 1.38223 20.7863H17.6179C18.0521 20.4451 18.1276 19.8165 17.7864 19.3822C15.6946 16.7198 12.7829 15 9.50004 15C6.21717 15 3.3055 16.7198 1.21372 19.3822Z" fill="currentColor"/>
</svg>
