<svg width="24" height="24" viewBox="0 0 24 24" fill="none" xmlns="http://www.w3.org/2000/svg">
<path fill-rule="evenodd" clip-rule="evenodd" d="M9.13636 3.40909C9.13636 2.35473 9.99109 1.5 11.0455 1.5H12.9545C14.0089 1.5 14.8636 2.35473 14.8636 3.40909V5.08654L16.0497 3.90049C16.7952 3.15494 18.004 3.15494 18.7495 3.90049L20.0995 5.25042C20.845 5.99597 20.845 7.20474 20.0995 7.95028L18.9134 9.13636H20.5909C21.6453 9.13636 22.5 9.99109 22.5 11.0455V12.9545C22.5 14.0089 21.6453 14.8636 20.5909 14.8636H18.9134L20.0997 16.0499C20.8452 16.7955 20.8452 18.0042 20.0997 18.7498L18.7497 20.0997C18.0042 20.8452 16.7954 20.8452 16.0499 20.0997L14.8636 18.9135V20.5909C14.8636 21.6453 14.0089 22.5 12.9545 22.5H11.0455C9.99109 22.5 9.13636 21.6453 9.13636 20.5909V18.9134L7.9501 20.0997C7.20455 20.8452 5.99578 20.8452 5.25023 20.0997L3.9003 18.7497C3.15476 18.0042 3.15476 16.7954 3.9003 16.0499L5.08654 14.8636H3.40909C2.35473 14.8636 1.5 14.0089 1.5 12.9545V11.0455C1.5 9.99109 2.35473 9.13636 3.40909 9.13636H5.08654L3.90049 7.95032C3.15494 7.20477 3.15494 5.996 3.90049 5.25045L5.25042 3.90052C5.99597 3.15498 7.20474 3.15498 7.95028 3.90052L9.13636 5.0866V3.40909ZM14 12C14 13.1046 13.1046 14 12 14C10.8954 14 10 13.1046 10 12C10 10.8954 10.8954 10 12 10C13.1046 10 14 10.8954 14 12ZM16 12C16 14.2091 14.2091 16 12 16C9.79086 16 8 14.2091 8 12C8 9.79086 9.79086 8 12 8C14.2091 8 16 9.79086 16 12Z" fill="currentColor"/>
</svg>
