<svg width="24" height="24" viewBox="0 0 24 24" fill="none" xmlns="http://www.w3.org/2000/svg">
<path fill-rule="evenodd" clip-rule="evenodd" d="M2 12C2 6.47715 6.47715 2 12 2C17.5228 2 22 6.47715 22 12C22 17.5228 17.5228 22 12 22C6.47715 22 2 17.5228 2 12ZM12 6.54545C12.5021 6.54545 12.9091 6.95247 12.9091 7.45455V12.3472L16.0429 13.9142C16.492 14.1387 16.674 14.6848 16.4495 15.1338C16.2249 15.5829 15.6789 15.7649 15.2298 15.5404L11.5934 13.7222C11.2855 13.5682 11.0909 13.2534 11.0909 12.9091V7.45455C11.0909 6.95247 11.4979 6.54545 12 6.54545Z" fill="#667085"/>
</svg>
