<svg width="16" height="16" viewBox="0 0 16 16" fill="none" xmlns="http://www.w3.org/2000/svg">
<g id="Icon">
<path id="Icon (Stroke)" fill-rule="evenodd" clip-rule="evenodd" d="M7.52858 1.52876C7.78892 1.26841 8.21103 1.26841 8.47138 1.52876L11.8047 4.86209C12.0651 5.12244 12.0651 5.54455 11.8047 5.8049C11.5444 6.06525 11.1223 6.06525 10.8619 5.8049L8.66665 3.60964V10.0002C8.66665 10.3684 8.36817 10.6668 7.99998 10.6668C7.63179 10.6668 7.33331 10.3684 7.33331 10.0002V3.60964L5.13805 5.8049C4.8777 6.06525 4.45559 6.06525 4.19524 5.8049C3.93489 5.54455 3.93489 5.12244 4.19524 4.86209L7.52858 1.52876ZM1.99998 9.3335C2.36817 9.3335 2.66665 9.63197 2.66665 10.0002V10.8002C2.66665 11.3712 2.66717 11.7594 2.69168 12.0595C2.71556 12.3517 2.75884 12.5012 2.81197 12.6055C2.9398 12.8564 3.14378 13.0603 3.39466 13.1882C3.49893 13.2413 3.6484 13.2846 3.94067 13.3085C4.24073 13.333 4.62893 13.3335 5.19998 13.3335H10.8C11.371 13.3335 11.7592 13.333 12.0593 13.3085C12.3516 13.2846 12.501 13.2413 12.6053 13.1882C12.8562 13.0603 13.0602 12.8564 13.188 12.6055C13.2411 12.5012 13.2844 12.3517 13.3083 12.0595C13.3328 11.7594 13.3333 11.3712 13.3333 10.8002V10.0002C13.3333 9.63197 13.6318 9.3335 14 9.3335C14.3682 9.3335 14.6666 9.63197 14.6666 10.0002V10.8277C14.6667 11.3644 14.6667 11.8073 14.6372 12.168C14.6066 12.5428 14.5409 12.8872 14.376 13.2108C14.1203 13.7126 13.7124 14.1205 13.2106 14.3762C12.8871 14.541 12.5426 14.6068 12.1679 14.6374C11.8071 14.6668 11.3642 14.6668 10.8275 14.6668H5.17243C4.63579 14.6668 4.19289 14.6668 3.8321 14.6374C3.45736 14.6068 3.1129 14.541 2.78934 14.3762C2.28757 14.1205 1.87963 13.7126 1.62396 13.2108C1.4591 12.8872 1.39339 12.5428 1.36278 12.168C1.3333 11.8073 1.3333 11.3643 1.33331 10.8277L1.33331 10.0002C1.33331 9.63197 1.63179 9.3335 1.99998 9.3335Z" fill="#667085"/>
</g>
</svg>
